solid Belt Nut
facet normal 0.0 0.0 -1.0
  outer loop
    vertex 96.84892613286337 71.05171463540141 0.0
    vertex 97.24892613286337 63.55171463540141 -8.107403637325205e-15
    vertex 96.84892613286337 56.05171463540142 0.0
  endloop
endfacet
facet normal 0.0 0.0 -1.0
  outer loop
    vertex 97.24892613286337 63.55171463540141 -8.107403637325205e-15
    vertex 96.84892613286337 71.05171463540141 0.0
    vertex 97.30344481080087 63.96582510756544 -8.107403637325205e-15
  endloop
endfacet
facet normal 0.0 0.0 -1.0
  outer loop
    vertex 97.30344481080087 63.96582510756544 -8.107403637325205e-15
    vertex 96.84892613286337 71.05171463540141 0.0
    vertex 97.46328548680827 64.35171463540141 -8.107403637325205e-15
  endloop
endfacet
facet normal 0.0 0.0 -1.0
  outer loop
    vertex 97.46328548680827 64.35171463540141 -8.107403637325205e-15
    vertex 96.84892613286337 71.05171463540141 0.0
    vertex 97.7175552829649 64.68308548529988 -8.107403637325205e-15
  endloop
endfacet
facet normal 0.0 0.0 -1.0
  outer loop
    vertex 97.7175552829649 64.68308548529988 -8.107403637325205e-15
    vertex 96.84892613286337 71.05171463540141 0.0
    vertex 98.04892613286337 64.9373552814565 -8.107403637325205e-15
  endloop
endfacet
facet normal 0.0 0.0 -1.0
  outer loop
    vertex 98.04892613286337 64.9373552814565 -8.107403637325205e-15
    vertex 96.84892613286337 71.05171463540141 0.0
    vertex 108.84892613286337 71.05171463540141 0.0
  endloop
endfacet
facet normal 0.0 0.0 -1.0
  outer loop
    vertex 98.04892613286337 64.9373552814565 -8.107403637325205e-15
    vertex 108.84892613286337 71.05171463540141 0.0
    vertex 98.43481566069934 65.09719595746391 -8.107403637325205e-15
  endloop
endfacet
facet normal 0.0 0.0 -1.0
  outer loop
    vertex 98.43481566069934 65.09719595746391 -8.107403637325205e-15
    vertex 108.84892613286337 71.05171463540141 0.0
    vertex 98.84892613286337 65.1517146354014 -8.107403637325205e-15
  endloop
endfacet
facet normal 0.0 0.0 -1.0
  outer loop
    vertex 98.84892613286337 65.1517146354014 -8.107403637325205e-15
    vertex 108.84892613286337 71.05171463540141 0.0
    vertex 99.26303660502741 65.09719595746391 -8.107403637325205e-15
  endloop
endfacet
facet normal 0.0 0.0 -1.0
  outer loop
    vertex 99.26303660502741 65.09719595746391 -8.107403637325205e-15
    vertex 108.84892613286337 71.05171463540141 0.0
    vertex 99.64892613286337 64.9373552814565 -8.107403637325205e-15
  endloop
endfacet
facet normal 0.0 0.0 -1.0
  outer loop
    vertex 99.64892613286337 64.9373552814565 -8.107403637325205e-15
    vertex 108.84892613286337 71.05171463540141 0.0
    vertex 99.98029698276184 64.68308548529988 -8.107403637325205e-15
  endloop
endfacet
facet normal 0.0 0.0 -1.0
  outer loop
    vertex 99.98029698276184 64.68308548529988 -8.107403637325205e-15
    vertex 108.84892613286337 71.05171463540141 0.0
    vertex 100.23456677891846 64.35171463540141 -8.107403637325205e-15
  endloop
endfacet
facet normal 0.0 0.0 -1.0
  outer loop
    vertex 100.23456677891846 64.35171463540141 -8.107403637325205e-15
    vertex 108.84892613286337 71.05171463540141 0.0
    vertex 100.39440745492587 63.96582510756544 -8.107403637325205e-15
  endloop
endfacet
facet normal 0.0 0.0 -1.0
  outer loop
    vertex 100.39440745492587 63.96582510756544 -8.107403637325205e-15
    vertex 108.84892613286337 71.05171463540141 0.0
    vertex 100.44892613286336 63.55171463540141 -8.107403637325205e-15
  endloop
endfacet
facet normal 0.0 0.0 -1.0
  outer loop
    vertex 100.44892613286336 63.55171463540141 -8.107403637325205e-15
    vertex 108.84892613286337 71.05171463540141 0.0
    vertex 105.46328548680826 64.35171463540141 -8.459899447643692e-15
  endloop
endfacet
facet normal 0.0 0.0 -1.0
  outer loop
    vertex 100.44892613286336 63.55171463540141 -8.107403637325205e-15
    vertex 105.46328548680826 64.35171463540141 -8.459899447643692e-15
    vertex 105.30344481080087 63.96582510756544 -8.459899447643692e-15
  endloop
endfacet
facet normal 0.0 0.0 -1.0
  outer loop
    vertex 100.44892613286336 63.55171463540141 -8.107403637325205e-15
    vertex 105.30344481080087 63.96582510756544 -8.459899447643692e-15
    vertex 105.24892613286337 63.55171463540141 -8.459899447643692e-15
  endloop
endfacet
facet normal 0.0 0.0 -1.0
  outer loop
    vertex 105.46328548680826 64.35171463540141 -8.459899447643692e-15
    vertex 108.84892613286337 71.05171463540141 0.0
    vertex 105.7175552829649 64.68308548529988 -8.459899447643692e-15
  endloop
endfacet
facet normal 0.0 0.0 -1.0
  outer loop
    vertex 105.7175552829649 64.68308548529988 -8.459899447643692e-15
    vertex 108.84892613286337 71.05171463540141 0.0
    vertex 106.04892613286337 64.9373552814565 -8.459899447643692e-15
  endloop
endfacet
facet normal 0.0 0.0 -1.0
  outer loop
    vertex 106.04892613286337 64.9373552814565 -8.459899447643692e-15
    vertex 108.84892613286337 71.05171463540141 0.0
    vertex 106.43481566069934 65.09719595746391 -8.459899447643692e-15
  endloop
endfacet
facet normal 0.0 0.0 -1.0
  outer loop
    vertex 106.43481566069934 65.09719595746391 -8.459899447643692e-15
    vertex 108.84892613286337 71.05171463540141 0.0
    vertex 106.84892613286337 65.1517146354014 -8.459899447643692e-15
  endloop
endfacet
facet normal 0.0 0.0 -1.0
  outer loop
    vertex 106.84892613286337 65.1517146354014 -8.459899447643692e-15
    vertex 108.84892613286337 71.05171463540141 0.0
    vertex 107.2630366050274 65.09719595746391 -8.459899447643692e-15
  endloop
endfacet
facet normal 0.0 0.0 -1.0
  outer loop
    vertex 107.2630366050274 65.09719595746391 -8.459899447643692e-15
    vertex 108.84892613286337 71.05171463540141 0.0
    vertex 107.64892613286337 64.9373552814565 -8.459899447643692e-15
  endloop
endfacet
facet normal 0.0 0.0 -1.0
  outer loop
    vertex 107.64892613286337 64.9373552814565 -8.459899447643692e-15
    vertex 108.84892613286337 71.05171463540141 0.0
    vertex 107.98029698276184 64.68308548529988 -8.459899447643692e-15
  endloop
endfacet
facet normal 0.0 0.0 -1.0
  outer loop
    vertex 107.98029698276184 64.68308548529988 -8.459899447643692e-15
    vertex 108.84892613286337 71.05171463540141 0.0
    vertex 108.23456677891848 64.35171463540141 -8.459899447643692e-15
  endloop
endfacet
facet normal 0.0 0.0 -1.0
  outer loop
    vertex 108.23456677891848 64.35171463540141 -8.459899447643692e-15
    vertex 108.84892613286337 71.05171463540141 0.0
    vertex 108.39440745492587 63.96582510756544 -8.459899447643692e-15
  endloop
endfacet
facet normal 0.0 0.0 -1.0
  outer loop
    vertex 108.39440745492587 63.96582510756544 -8.459899447643692e-15
    vertex 108.84892613286337 71.05171463540141 0.0
    vertex 108.44892613286336 63.55171463540141 -8.459899447643692e-15
  endloop
endfacet
facet normal 0.0 0.0 -1.0
  outer loop
    vertex 96.84892613286337 56.05171463540142 0.0
    vertex 98.04892613286337 62.166073989346316 -8.107403637325205e-15
    vertex 108.84892613286337 56.05171463540142 0.0
  endloop
endfacet
facet normal 0.0 0.0 -1.0
  outer loop
    vertex 98.04892613286337 62.166073989346316 -8.107403637325205e-15
    vertex 96.84892613286337 56.05171463540142 0.0
    vertex 97.7175552829649 62.42034378550294 -8.107403637325205e-15
  endloop
endfacet
facet normal 0.0 0.0 -1.0
  outer loop
    vertex 97.7175552829649 62.42034378550294 -8.107403637325205e-15
    vertex 96.84892613286337 56.05171463540142 0.0
    vertex 97.46328548680827 62.75171463540141 -8.107403637325205e-15
  endloop
endfacet
facet normal 0.0 0.0 -1.0
  outer loop
    vertex 97.46328548680827 62.75171463540141 -8.107403637325205e-15
    vertex 96.84892613286337 56.05171463540142 0.0
    vertex 97.30344481080087 63.13760416323738 -8.107403637325205e-15
  endloop
endfacet
facet normal 0.0 0.0 -1.0
  outer loop
    vertex 97.30344481080087 63.13760416323738 -8.107403637325205e-15
    vertex 96.84892613286337 56.05171463540142 0.0
    vertex 97.24892613286337 63.55171463540141 -8.107403637325205e-15
  endloop
endfacet
facet normal 0.0 0.0 -1.0
  outer loop
    vertex 108.84892613286337 56.05171463540142 0.0
    vertex 98.04892613286337 62.166073989346316 -8.107403637325205e-15
    vertex 98.43481566069934 62.00623331333891 -8.107403637325205e-15
  endloop
endfacet
facet normal 0.0 0.0 -1.0
  outer loop
    vertex 108.84892613286337 56.05171463540142 0.0
    vertex 98.43481566069934 62.00623331333891 -8.107403637325205e-15
    vertex 98.84892613286337 61.951714635401416 -8.107403637325205e-15
  endloop
endfacet
facet normal 0.0 0.0 -1.0
  outer loop
    vertex 108.84892613286337 56.05171463540142 0.0
    vertex 98.84892613286337 61.951714635401416 -8.107403637325205e-15
    vertex 99.26303660502741 62.00623331333891 -8.107403637325205e-15
  endloop
endfacet
facet normal 0.0 0.0 -1.0
  outer loop
    vertex 108.84892613286337 56.05171463540142 0.0
    vertex 99.26303660502741 62.00623331333891 -8.107403637325205e-15
    vertex 99.64892613286337 62.166073989346316 -8.107403637325205e-15
  endloop
endfacet
facet normal 0.0 0.0 -1.0
  outer loop
    vertex 108.84892613286337 56.05171463540142 0.0
    vertex 99.64892613286337 62.166073989346316 -8.107403637325205e-15
    vertex 99.98029698276184 62.42034378550294 -8.107403637325205e-15
  endloop
endfacet
facet normal 0.0 0.0 -1.0
  outer loop
    vertex 108.84892613286337 56.05171463540142 0.0
    vertex 99.98029698276184 62.42034378550294 -8.107403637325205e-15
    vertex 100.23456677891846 62.75171463540141 -8.107403637325205e-15
  endloop
endfacet
facet normal 0.0 0.0 -1.0
  outer loop
    vertex 108.84892613286337 56.05171463540142 0.0
    vertex 100.23456677891846 62.75171463540141 -8.107403637325205e-15
    vertex 100.39440745492587 63.13760416323738 -8.107403637325205e-15
  endloop
endfacet
facet normal 0.0 0.0 -1.0
  outer loop
    vertex 108.84892613286337 56.05171463540142 0.0
    vertex 100.39440745492587 63.13760416323738 -8.107403637325205e-15
    vertex 100.44892613286336 63.55171463540141 -8.107403637325205e-15
  endloop
endfacet
facet normal 0.0 0.0 -1.0
  outer loop
    vertex 108.84892613286337 56.05171463540142 0.0
    vertex 100.44892613286336 63.55171463540141 -8.107403637325205e-15
    vertex 105.46328548680826 62.75171463540141 -8.459899447643692e-15
  endloop
endfacet
facet normal 0.0 0.0 -1.0
  outer loop
    vertex 105.46328548680826 62.75171463540141 -8.459899447643692e-15
    vertex 100.44892613286336 63.55171463540141 -8.107403637325205e-15
    vertex 105.30344481080087 63.13760416323738 -8.459899447643692e-15
  endloop
endfacet
facet normal 0.0 0.0 -1.0
  outer loop
    vertex 105.30344481080087 63.13760416323738 -8.459899447643692e-15
    vertex 100.44892613286336 63.55171463540141 -8.107403637325205e-15
    vertex 105.24892613286337 63.55171463540141 -8.459899447643692e-15
  endloop
endfacet
facet normal 0.0 0.0 -1.0
  outer loop
    vertex 108.84892613286337 56.05171463540142 0.0
    vertex 105.46328548680826 62.75171463540141 -8.459899447643692e-15
    vertex 105.7175552829649 62.42034378550294 -8.459899447643692e-15
  endloop
endfacet
facet normal 0.0 0.0 -1.0
  outer loop
    vertex 108.84892613286337 56.05171463540142 0.0
    vertex 105.7175552829649 62.42034378550294 -8.459899447643692e-15
    vertex 106.04892613286337 62.166073989346316 -8.459899447643692e-15
  endloop
endfacet
facet normal 0.0 0.0 -1.0
  outer loop
    vertex 108.84892613286337 56.05171463540142 0.0
    vertex 106.04892613286337 62.166073989346316 -8.459899447643692e-15
    vertex 106.43481566069934 62.00623331333891 -8.459899447643692e-15
  endloop
endfacet
facet normal 0.0 0.0 -1.0
  outer loop
    vertex 108.84892613286337 56.05171463540142 0.0
    vertex 106.43481566069934 62.00623331333891 -8.459899447643692e-15
    vertex 106.84892613286337 61.951714635401416 -8.459899447643692e-15
  endloop
endfacet
facet normal 0.0 0.0 -1.0
  outer loop
    vertex 108.84892613286337 56.05171463540142 0.0
    vertex 106.84892613286337 61.951714635401416 -8.459899447643692e-15
    vertex 107.2630366050274 62.00623331333891 -8.459899447643692e-15
  endloop
endfacet
facet normal 0.0 0.0 -1.0
  outer loop
    vertex 108.84892613286337 56.05171463540142 0.0
    vertex 107.2630366050274 62.00623331333891 -8.459899447643692e-15
    vertex 107.64892613286337 62.166073989346316 -8.459899447643692e-15
  endloop
endfacet
facet normal 0.0 0.0 -1.0
  outer loop
    vertex 108.84892613286337 56.05171463540142 0.0
    vertex 107.64892613286337 62.166073989346316 -8.459899447643692e-15
    vertex 107.98029698276184 62.42034378550294 -8.459899447643692e-15
  endloop
endfacet
facet normal 0.0 0.0 -1.0
  outer loop
    vertex 108.84892613286337 56.05171463540142 0.0
    vertex 107.98029698276184 62.42034378550294 -8.459899447643692e-15
    vertex 108.23456677891848 62.75171463540141 -8.459899447643692e-15
  endloop
endfacet
facet normal 0.0 0.0 -1.0
  outer loop
    vertex 108.84892613286337 56.05171463540142 0.0
    vertex 108.23456677891848 62.75171463540141 -8.459899447643692e-15
    vertex 108.39440745492587 63.13760416323738 -8.459899447643692e-15
  endloop
endfacet
facet normal 0.0 0.0 -1.0
  outer loop
    vertex 108.84892613286337 56.05171463540142 0.0
    vertex 108.39440745492587 63.13760416323738 -8.459899447643692e-15
    vertex 108.44892613286336 63.55171463540141 -8.459899447643692e-15
  endloop
endfacet
facet normal 0.0 0.0 -1.0
  outer loop
    vertex 108.84892613286337 56.05171463540142 0.0
    vertex 108.44892613286336 63.55171463540141 -8.459899447643692e-15
    vertex 108.84892613286337 71.05171463540141 0.0
  endloop
endfacet
facet normal -0.0 1.0 0.0
  outer loop
    vertex 96.84892613286337 71.05171463540141 3.0
    vertex 108.84892613286337 71.05171463540141 0.0
    vertex 96.84892613286337 71.05171463540141 0.0
  endloop
endfacet
facet normal -0.0 1.0 0.0
  outer loop
    vertex 108.84892613286337 71.05171463540141 0.0
    vertex 96.84892613286337 71.05171463540141 3.0
    vertex 108.84892613286337 71.05171463540141 3.0
  endloop
endfacet
facet normal 1.0 -0.0 -0.0
  outer loop
    vertex 108.84892613286337 56.05171463540142 0.0
    vertex 108.84892613286337 62.050603935508384 1.0000000000000036
    vertex 108.84892613286337 56.05171463540142 3.0
  endloop
endfacet
facet normal 1.0 -0.0 -0.0
  outer loop
    vertex 108.84892613286337 62.050603935508384 1.0000000000000036
    vertex 108.84892613286337 56.05171463540142 0.0
    vertex 108.84892613286337 71.05171463540141 0.0
  endloop
endfacet
facet normal 1.0 -0.0 -0.0
  outer loop
    vertex 108.84892613286337 62.050603935508384 1.0000000000000036
    vertex 108.84892613286337 71.05171463540141 0.0
    vertex 108.84892613286337 65.05282533529444 1.0000000000000036
  endloop
endfacet
facet normal 1.0 -0.0 -0.0
  outer loop
    vertex 108.84892613286337 65.05282533529444 1.0000000000000036
    vertex 108.84892613286337 71.05171463540141 0.0
    vertex 108.84892613286337 65.05282533529444 2.9999999999999987
  endloop
endfacet
facet normal 1.0 -0.0 -0.0
  outer loop
    vertex 108.84892613286337 65.05282533529444 2.9999999999999987
    vertex 108.84892613286337 71.05171463540141 0.0
    vertex 108.84892613286337 71.05171463540141 3.0
  endloop
endfacet
facet normal 1.0 -0.0 -0.0
  outer loop
    vertex 108.84892613286337 62.050603935508384 2.9999999999999987
    vertex 108.84892613286337 56.05171463540142 3.0
    vertex 108.84892613286337 62.050603935508384 1.0000000000000036
  endloop
endfacet
facet normal 1.0936586756922602e-31 -3.6363475074058426e-48 1.0
  outer loop
    vertex 96.84892613286337 56.05171463540142 3.0
    vertex 98.84892613286337 60.89590339712913 2.999999999999998
    vertex 96.84892613286337 62.05060393550839 2.9999999999999987
  endloop
endfacet
facet normal 1.0936586756922602e-31 -3.6363475074058426e-48 1.0
  outer loop
    vertex 98.84892613286337 60.89590339712913 2.999999999999998
    vertex 96.84892613286337 56.05171463540142 3.0
    vertex 108.84892613286337 56.05171463540142 3.0
  endloop
endfacet
facet normal 1.0936586756922602e-31 -3.6363475074058426e-48 1.0
  outer loop
    vertex 98.84892613286337 60.89590339712913 2.999999999999998
    vertex 108.84892613286337 56.05171463540142 3.0
    vertex 101.14892613286337 62.22380901626527 2.999999999999998
  endloop
endfacet
facet normal 1.0936586756922602e-31 -3.6363475074058426e-48 1.0
  outer loop
    vertex 101.14892613286337 62.22380901626527 2.999999999999998
    vertex 108.84892613286337 56.05171463540142 3.0
    vertex 101.14892613286337 64.87962025453756 2.999999999999998
  endloop
endfacet
facet normal 1.0936586756922602e-31 -3.6363475074058426e-48 1.0
  outer loop
    vertex 101.14892613286337 64.87962025453756 2.999999999999998
    vertex 108.84892613286337 56.05171463540142 3.0
    vertex 104.54892613286337 62.22380901626527 2.999999999999998
  endloop
endfacet
facet normal 1.0936586756922602e-31 -3.6363475074058426e-48 1.0
  outer loop
    vertex 104.54892613286337 62.22380901626527 2.999999999999998
    vertex 108.84892613286337 56.05171463540142 3.0
    vertex 106.84892613286337 60.89590339712913 2.999999999999998
  endloop
endfacet
facet normal 1.0936586756922602e-31 -3.6363475074058426e-48 1.0
  outer loop
    vertex 106.84892613286337 60.89590339712913 2.999999999999998
    vertex 108.84892613286337 56.05171463540142 3.0
    vertex 108.84892613286337 62.050603935508384 2.9999999999999987
  endloop
endfacet
facet normal 1.0936586756922602e-31 -3.6363475074058426e-48 1.0
  outer loop
    vertex 98.84892613286337 66.20752587367369 2.999999999999998
    vertex 96.84892613286337 71.05171463540141 3.0
    vertex 96.84892613286337 65.05282533529443 2.9999999999999987
  endloop
endfacet
facet normal 1.0936586756922602e-31 -3.6363475074058426e-48 1.0
  outer loop
    vertex 96.84892613286337 71.05171463540141 3.0
    vertex 98.84892613286337 66.20752587367369 2.999999999999998
    vertex 108.84892613286337 71.05171463540141 3.0
  endloop
endfacet
facet normal 1.0936586756922602e-31 -3.6363475074058426e-48 1.0
  outer loop
    vertex 108.84892613286337 71.05171463540141 3.0
    vertex 98.84892613286337 66.20752587367369 2.999999999999998
    vertex 101.14892613286337 64.87962025453756 2.999999999999998
  endloop
endfacet
facet normal 1.0936586756922602e-31 -3.6363475074058426e-48 1.0
  outer loop
    vertex 108.84892613286337 71.05171463540141 3.0
    vertex 101.14892613286337 64.87962025453756 2.999999999999998
    vertex 104.54892613286337 64.87962025453756 2.999999999999998
  endloop
endfacet
facet normal 1.0936586756922602e-31 -3.6363475074058426e-48 1.0
  outer loop
    vertex 104.54892613286337 64.87962025453756 2.999999999999998
    vertex 101.14892613286337 64.87962025453756 2.999999999999998
    vertex 104.54892613286337 62.22380901626527 2.999999999999998
  endloop
endfacet
facet normal 1.0936586756922602e-31 -3.6363475074058426e-48 1.0
  outer loop
    vertex 108.84892613286337 71.05171463540141 3.0
    vertex 104.54892613286337 64.87962025453756 2.999999999999998
    vertex 106.84892613286337 66.20752587367369 2.999999999999998
  endloop
endfacet
facet normal 1.0936586756922602e-31 -3.6363475074058426e-48 1.0
  outer loop
    vertex 108.84892613286337 71.05171463540141 3.0
    vertex 106.84892613286337 66.20752587367369 2.999999999999998
    vertex 108.84892613286337 65.05282533529444 2.9999999999999987
  endloop
endfacet
facet normal -1.0 0.0 0.0
  outer loop
    vertex 96.84892613286337 71.05171463540141 3.0
    vertex 96.84892613286337 65.05282533529443 0.9999999999999989
    vertex 96.84892613286337 65.05282533529443 2.9999999999999987
  endloop
endfacet
facet normal -1.0 0.0 0.0
  outer loop
    vertex 96.84892613286337 62.05060393550839 2.9999999999999987
    vertex 96.84892613286337 56.05171463540142 0.0
    vertex 96.84892613286337 56.05171463540142 3.0
  endloop
endfacet
facet normal -1.0 0.0 0.0
  outer loop
    vertex 96.84892613286337 56.05171463540142 0.0
    vertex 96.84892613286337 62.05060393550839 2.9999999999999987
    vertex 96.84892613286337 62.05060393550839 0.9999999999999989
  endloop
endfacet
facet normal -1.0 0.0 0.0
  outer loop
    vertex 96.84892613286337 56.05171463540142 0.0
    vertex 96.84892613286337 62.05060393550839 0.9999999999999989
    vertex 96.84892613286337 71.05171463540141 0.0
  endloop
endfacet
facet normal -1.0 0.0 0.0
  outer loop
    vertex 96.84892613286337 71.05171463540141 0.0
    vertex 96.84892613286337 62.05060393550839 0.9999999999999989
    vertex 96.84892613286337 65.05282533529443 0.9999999999999989
  endloop
endfacet
facet normal -1.0 0.0 0.0
  outer loop
    vertex 96.84892613286337 71.05171463540141 0.0
    vertex 96.84892613286337 65.05282533529443 0.9999999999999989
    vertex 96.84892613286337 71.05171463540141 3.0
  endloop
endfacet
facet normal -0.0 -1.0 -0.0
  outer loop
    vertex 108.84892613286337 56.05171463540142 3.0
    vertex 96.84892613286337 56.05171463540142 0.0
    vertex 108.84892613286337 56.05171463540142 0.0
  endloop
endfacet
facet normal -0.0 -1.0 -0.0
  outer loop
    vertex 96.84892613286337 56.05171463540142 0.0
    vertex 108.84892613286337 56.05171463540142 3.0
    vertex 96.84892613286337 56.05171463540142 3.0
  endloop
endfacet
facet normal 0.3826834323650867 0.9238795325112881 0.0
  outer loop
    vertex 98.04892613286337 62.166073989346316 0.9999999999999978
    vertex 98.43481566069934 62.00623331333891 -8.107403637325205e-15
    vertex 98.04892613286337 62.166073989346316 -8.107403637325205e-15
  endloop
endfacet
facet normal 0.3826834323650867 0.9238795325112881 0.0
  outer loop
    vertex 98.43481566069934 62.00623331333891 -8.107403637325205e-15
    vertex 98.04892613286337 62.166073989346316 0.9999999999999978
    vertex 98.43481566069934 62.00623331333891 0.9999999999999978
  endloop
endfacet
facet normal 0.1305261922200628 0.991444861373809 0.0
  outer loop
    vertex 98.43481566069934 62.00623331333891 0.9999999999999978
    vertex 98.84892613286337 61.951714635401416 -8.107403637325205e-15
    vertex 98.43481566069934 62.00623331333891 -8.107403637325205e-15
  endloop
endfacet
facet normal 0.1305261922200628 0.991444861373809 0.0
  outer loop
    vertex 98.84892613286337 61.951714635401416 -8.107403637325205e-15
    vertex 98.43481566069934 62.00623331333891 0.9999999999999978
    vertex 98.84892613286337 61.951714635401416 0.9999999999999978
  endloop
endfacet
facet normal -0.1305261922200628 0.991444861373809 -0.0
  outer loop
    vertex 98.84892613286337 61.951714635401416 0.9999999999999978
    vertex 99.26303660502741 62.00623331333891 -8.107403637325205e-15
    vertex 98.84892613286337 61.951714635401416 -8.107403637325205e-15
  endloop
endfacet
facet normal -0.1305261922200628 0.991444861373809 -0.0
  outer loop
    vertex 99.26303660502741 62.00623331333891 -8.107403637325205e-15
    vertex 98.84892613286337 61.951714635401416 0.9999999999999978
    vertex 99.26303660502741 62.00623331333891 0.9999999999999978
  endloop
endfacet
facet normal -0.3826834323650867 0.9238795325112881 -0.0
  outer loop
    vertex 99.26303660502741 62.00623331333891 0.9999999999999978
    vertex 99.64892613286337 62.166073989346316 -8.107403637325205e-15
    vertex 99.26303660502741 62.00623331333891 -8.107403637325205e-15
  endloop
endfacet
facet normal -0.3826834323650867 0.9238795325112881 -0.0
  outer loop
    vertex 99.64892613286337 62.166073989346316 -8.107403637325205e-15
    vertex 99.26303660502741 62.00623331333891 0.9999999999999978
    vertex 99.64892613286337 62.166073989346316 0.9999999999999978
  endloop
endfacet
facet normal -0.6087614290087265 0.7933533402912306 -0.0
  outer loop
    vertex 99.64892613286337 62.166073989346316 0.9999999999999978
    vertex 99.98029698276184 62.42034378550294 -8.107403637325205e-15
    vertex 99.64892613286337 62.166073989346316 -8.107403637325205e-15
  endloop
endfacet
facet normal -0.6087614290087265 0.7933533402912306 -0.0
  outer loop
    vertex 99.98029698276184 62.42034378550294 -8.107403637325205e-15
    vertex 99.64892613286337 62.166073989346316 0.9999999999999978
    vertex 99.98029698276184 62.42034378550294 0.9999999999999978
  endloop
endfacet
facet normal -0.7933533402912306 0.6087614290087265 -0.0
  outer loop
    vertex 100.23456677891846 62.75171463540141 0.9999999999999978
    vertex 99.98029698276184 62.42034378550294 -8.107403637325205e-15
    vertex 99.98029698276184 62.42034378550294 0.9999999999999978
  endloop
endfacet
facet normal -0.7933533402912306 0.6087614290087265 -0.0
  outer loop
    vertex 99.98029698276184 62.42034378550294 -8.107403637325205e-15
    vertex 100.23456677891846 62.75171463540141 0.9999999999999978
    vertex 100.23456677891846 62.75171463540141 -8.107403637325205e-15
  endloop
endfacet
facet normal -0.9238795325112881 0.3826834323650867 -0.0
  outer loop
    vertex 100.39440745492587 63.13760416323738 0.9999999999999978
    vertex 100.23456677891846 62.75171463540141 -8.107403637325205e-15
    vertex 100.23456677891846 62.75171463540141 0.9999999999999978
  endloop
endfacet
facet normal -0.9238795325112881 0.3826834323650867 -0.0
  outer loop
    vertex 100.23456677891846 62.75171463540141 -8.107403637325205e-15
    vertex 100.39440745492587 63.13760416323738 0.9999999999999978
    vertex 100.39440745492587 63.13760416323738 -8.107403637325205e-15
  endloop
endfacet
facet normal -0.991444861373809 0.1305261922200628 -0.0
  outer loop
    vertex 100.44892613286336 63.55171463540141 0.9999999999999978
    vertex 100.39440745492587 63.13760416323738 -8.107403637325205e-15
    vertex 100.39440745492587 63.13760416323738 0.9999999999999978
  endloop
endfacet
facet normal -0.991444861373809 0.1305261922200628 -0.0
  outer loop
    vertex 100.39440745492587 63.13760416323738 -8.107403637325205e-15
    vertex 100.44892613286336 63.55171463540141 0.9999999999999978
    vertex 100.44892613286336 63.55171463540141 -8.107403637325205e-15
  endloop
endfacet
facet normal -0.991444861373809 -0.1305261922200628 -0.0
  outer loop
    vertex 100.39440745492587 63.96582510756544 0.9999999999999978
    vertex 100.44892613286336 63.55171463540141 -8.107403637325205e-15
    vertex 100.44892613286336 63.55171463540141 0.9999999999999978
  endloop
endfacet
facet normal -0.991444861373809 -0.1305261922200628 -0.0
  outer loop
    vertex 100.44892613286336 63.55171463540141 -8.107403637325205e-15
    vertex 100.39440745492587 63.96582510756544 0.9999999999999978
    vertex 100.39440745492587 63.96582510756544 -8.107403637325205e-15
  endloop
endfacet
facet normal -0.9238795325112881 -0.3826834323650867 -0.0
  outer loop
    vertex 100.23456677891846 64.35171463540141 0.9999999999999978
    vertex 100.39440745492587 63.96582510756544 -8.107403637325205e-15
    vertex 100.39440745492587 63.96582510756544 0.9999999999999978
  endloop
endfacet
facet normal -0.9238795325112881 -0.3826834323650867 -0.0
  outer loop
    vertex 100.39440745492587 63.96582510756544 -8.107403637325205e-15
    vertex 100.23456677891846 64.35171463540141 0.9999999999999978
    vertex 100.23456677891846 64.35171463540141 -8.107403637325205e-15
  endloop
endfacet
facet normal -0.7933533402912306 -0.6087614290087265 -0.0
  outer loop
    vertex 99.98029698276184 64.68308548529988 0.9999999999999978
    vertex 100.23456677891846 64.35171463540141 -8.107403637325205e-15
    vertex 100.23456677891846 64.35171463540141 0.9999999999999978
  endloop
endfacet
facet normal -0.7933533402912306 -0.6087614290087265 -0.0
  outer loop
    vertex 100.23456677891846 64.35171463540141 -8.107403637325205e-15
    vertex 99.98029698276184 64.68308548529988 0.9999999999999978
    vertex 99.98029698276184 64.68308548529988 -8.107403637325205e-15
  endloop
endfacet
facet normal -0.6087614290087265 -0.7933533402912306 -0.0
  outer loop
    vertex 99.98029698276184 64.68308548529988 0.9999999999999978
    vertex 99.64892613286337 64.9373552814565 -8.107403637325205e-15
    vertex 99.98029698276184 64.68308548529988 -8.107403637325205e-15
  endloop
endfacet
facet normal -0.6087614290087265 -0.7933533402912306 -0.0
  outer loop
    vertex 99.64892613286337 64.9373552814565 -8.107403637325205e-15
    vertex 99.98029698276184 64.68308548529988 0.9999999999999978
    vertex 99.64892613286337 64.9373552814565 0.9999999999999978
  endloop
endfacet
facet normal -0.3826834323650867 -0.9238795325112881 -0.0
  outer loop
    vertex 99.64892613286337 64.9373552814565 0.9999999999999978
    vertex 99.26303660502741 65.09719595746391 -8.107403637325205e-15
    vertex 99.64892613286337 64.9373552814565 -8.107403637325205e-15
  endloop
endfacet
facet normal -0.3826834323650867 -0.9238795325112881 -0.0
  outer loop
    vertex 99.26303660502741 65.09719595746391 -8.107403637325205e-15
    vertex 99.64892613286337 64.9373552814565 0.9999999999999978
    vertex 99.26303660502741 65.09719595746391 0.9999999999999978
  endloop
endfacet
facet normal -0.1305261922200628 -0.991444861373809 -0.0
  outer loop
    vertex 99.26303660502741 65.09719595746391 0.9999999999999978
    vertex 98.84892613286337 65.1517146354014 -8.107403637325205e-15
    vertex 99.26303660502741 65.09719595746391 -8.107403637325205e-15
  endloop
endfacet
facet normal -0.1305261922200628 -0.991444861373809 -0.0
  outer loop
    vertex 98.84892613286337 65.1517146354014 -8.107403637325205e-15
    vertex 99.26303660502741 65.09719595746391 0.9999999999999978
    vertex 98.84892613286337 65.1517146354014 0.9999999999999978
  endloop
endfacet
facet normal 0.1305261922200628 -0.991444861373809 -0.0
  outer loop
    vertex 98.84892613286337 65.1517146354014 0.9999999999999978
    vertex 98.43481566069934 65.09719595746391 -8.107403637325205e-15
    vertex 98.84892613286337 65.1517146354014 -8.107403637325205e-15
  endloop
endfacet
facet normal 0.1305261922200628 -0.991444861373809 -0.0
  outer loop
    vertex 98.43481566069934 65.09719595746391 -8.107403637325205e-15
    vertex 98.84892613286337 65.1517146354014 0.9999999999999978
    vertex 98.43481566069934 65.09719595746391 0.9999999999999978
  endloop
endfacet
facet normal 0.3826834323650867 -0.9238795325112881 -0.0
  outer loop
    vertex 98.43481566069934 65.09719595746391 0.9999999999999978
    vertex 98.04892613286337 64.9373552814565 -8.107403637325205e-15
    vertex 98.43481566069934 65.09719595746391 -8.107403637325205e-15
  endloop
endfacet
facet normal 0.3826834323650867 -0.9238795325112881 -0.0
  outer loop
    vertex 98.04892613286337 64.9373552814565 -8.107403637325205e-15
    vertex 98.43481566069934 65.09719595746391 0.9999999999999978
    vertex 98.04892613286337 64.9373552814565 0.9999999999999978
  endloop
endfacet
facet normal 0.6087614290087265 -0.7933533402912306 -0.0
  outer loop
    vertex 98.04892613286337 64.9373552814565 0.9999999999999978
    vertex 97.7175552829649 64.68308548529988 -8.107403637325205e-15
    vertex 98.04892613286337 64.9373552814565 -8.107403637325205e-15
  endloop
endfacet
facet normal 0.6087614290087265 -0.7933533402912306 -0.0
  outer loop
    vertex 97.7175552829649 64.68308548529988 -8.107403637325205e-15
    vertex 98.04892613286337 64.9373552814565 0.9999999999999978
    vertex 97.7175552829649 64.68308548529988 0.9999999999999978
  endloop
endfacet
facet normal 0.7933533402912306 -0.6087614290087265 -0.0
  outer loop
    vertex 97.7175552829649 64.68308548529988 -8.107403637325205e-15
    vertex 97.46328548680827 64.35171463540141 0.9999999999999978
    vertex 97.46328548680827 64.35171463540141 -8.107403637325205e-15
  endloop
endfacet
facet normal 0.7933533402912306 -0.6087614290087265 -0.0
  outer loop
    vertex 97.46328548680827 64.35171463540141 0.9999999999999978
    vertex 97.7175552829649 64.68308548529988 -8.107403637325205e-15
    vertex 97.7175552829649 64.68308548529988 0.9999999999999978
  endloop
endfacet
facet normal 0.9238795325112881 -0.3826834323650867 -0.0
  outer loop
    vertex 97.46328548680827 64.35171463540141 -8.107403637325205e-15
    vertex 97.30344481080087 63.96582510756544 0.9999999999999978
    vertex 97.30344481080087 63.96582510756544 -8.107403637325205e-15
  endloop
endfacet
facet normal 0.9238795325112881 -0.3826834323650867 -0.0
  outer loop
    vertex 97.30344481080087 63.96582510756544 0.9999999999999978
    vertex 97.46328548680827 64.35171463540141 -8.107403637325205e-15
    vertex 97.46328548680827 64.35171463540141 0.9999999999999978
  endloop
endfacet
facet normal 0.991444861373809 -0.1305261922200628 -0.0
  outer loop
    vertex 97.30344481080087 63.96582510756544 -8.107403637325205e-15
    vertex 97.24892613286337 63.55171463540141 0.9999999999999978
    vertex 97.24892613286337 63.55171463540141 -8.107403637325205e-15
  endloop
endfacet
facet normal 0.991444861373809 -0.1305261922200628 -0.0
  outer loop
    vertex 97.24892613286337 63.55171463540141 0.9999999999999978
    vertex 97.30344481080087 63.96582510756544 -8.107403637325205e-15
    vertex 97.30344481080087 63.96582510756544 0.9999999999999978
  endloop
endfacet
facet normal 0.991444861373809 0.1305261922200628 0.0
  outer loop
    vertex 97.24892613286337 63.55171463540141 -8.107403637325205e-15
    vertex 97.30344481080087 63.13760416323738 0.9999999999999978
    vertex 97.30344481080087 63.13760416323738 -8.107403637325205e-15
  endloop
endfacet
facet normal 0.991444861373809 0.1305261922200628 0.0
  outer loop
    vertex 97.30344481080087 63.13760416323738 0.9999999999999978
    vertex 97.24892613286337 63.55171463540141 -8.107403637325205e-15
    vertex 97.24892613286337 63.55171463540141 0.9999999999999978
  endloop
endfacet
facet normal 0.9238795325112881 0.3826834323650867 0.0
  outer loop
    vertex 97.30344481080087 63.13760416323738 -8.107403637325205e-15
    vertex 97.46328548680827 62.75171463540141 0.9999999999999978
    vertex 97.46328548680827 62.75171463540141 -8.107403637325205e-15
  endloop
endfacet
facet normal 0.9238795325112881 0.3826834323650867 0.0
  outer loop
    vertex 97.46328548680827 62.75171463540141 0.9999999999999978
    vertex 97.30344481080087 63.13760416323738 -8.107403637325205e-15
    vertex 97.30344481080087 63.13760416323738 0.9999999999999978
  endloop
endfacet
facet normal 0.7933533402912306 0.6087614290087265 0.0
  outer loop
    vertex 97.46328548680827 62.75171463540141 -8.107403637325205e-15
    vertex 97.7175552829649 62.42034378550294 0.9999999999999978
    vertex 97.7175552829649 62.42034378550294 -8.107403637325205e-15
  endloop
endfacet
facet normal 0.7933533402912306 0.6087614290087265 0.0
  outer loop
    vertex 97.7175552829649 62.42034378550294 0.9999999999999978
    vertex 97.46328548680827 62.75171463540141 -8.107403637325205e-15
    vertex 97.46328548680827 62.75171463540141 0.9999999999999978
  endloop
endfacet
facet normal 0.6087614290087265 0.7933533402912306 0.0
  outer loop
    vertex 97.7175552829649 62.42034378550294 0.9999999999999978
    vertex 98.04892613286337 62.166073989346316 -8.107403637325205e-15
    vertex 97.7175552829649 62.42034378550294 -8.107403637325205e-15
  endloop
endfacet
facet normal 0.6087614290087265 0.7933533402912306 0.0
  outer loop
    vertex 98.04892613286337 62.166073989346316 -8.107403637325205e-15
    vertex 97.7175552829649 62.42034378550294 0.9999999999999978
    vertex 98.04892613286337 62.166073989346316 0.9999999999999978
  endloop
endfacet
facet normal 0.9238795325112976 -0.3826834323650637 -0.0
  outer loop
    vertex 105.46328548680826 64.35171463540141 -8.459899447643692e-15
    vertex 105.30344481080087 63.96582510756544 1.0000000000000024
    vertex 105.30344481080087 63.96582510756544 -8.459899447643692e-15
  endloop
endfacet
facet normal 0.9238795325112976 -0.3826834323650637 -0.0
  outer loop
    vertex 105.30344481080087 63.96582510756544 1.0000000000000024
    vertex 105.46328548680826 64.35171463540141 -8.459899447643692e-15
    vertex 105.46328548680826 64.35171463540141 1.0000000000000024
  endloop
endfacet
facet normal 0.991444861373809 -0.1305261922200628 -0.0
  outer loop
    vertex 105.30344481080087 63.96582510756544 -8.459899447643692e-15
    vertex 105.24892613286337 63.55171463540141 1.0000000000000024
    vertex 105.24892613286337 63.55171463540141 -8.459899447643692e-15
  endloop
endfacet
facet normal 0.991444861373809 -0.1305261922200628 -0.0
  outer loop
    vertex 105.24892613286337 63.55171463540141 1.0000000000000024
    vertex 105.30344481080087 63.96582510756544 -8.459899447643692e-15
    vertex 105.30344481080087 63.96582510756544 1.0000000000000024
  endloop
endfacet
facet normal 0.991444861373809 0.1305261922200628 0.0
  outer loop
    vertex 105.24892613286337 63.55171463540141 -8.459899447643692e-15
    vertex 105.30344481080087 63.13760416323738 1.0000000000000024
    vertex 105.30344481080087 63.13760416323738 -8.459899447643692e-15
  endloop
endfacet
facet normal 0.991444861373809 0.1305261922200628 0.0
  outer loop
    vertex 105.30344481080087 63.13760416323738 1.0000000000000024
    vertex 105.24892613286337 63.55171463540141 -8.459899447643692e-15
    vertex 105.24892613286337 63.55171463540141 1.0000000000000024
  endloop
endfacet
facet normal 0.9238795325112976 0.3826834323650637 0.0
  outer loop
    vertex 105.30344481080087 63.13760416323738 -8.459899447643692e-15
    vertex 105.46328548680826 62.75171463540141 1.0000000000000024
    vertex 105.46328548680826 62.75171463540141 -8.459899447643692e-15
  endloop
endfacet
facet normal 0.9238795325112976 0.3826834323650637 0.0
  outer loop
    vertex 105.46328548680826 62.75171463540141 1.0000000000000024
    vertex 105.30344481080087 63.13760416323738 -8.459899447643692e-15
    vertex 105.30344481080087 63.13760416323738 1.0000000000000024
  endloop
endfacet
facet normal 0.7933533402912176 0.6087614290087435 0.0
  outer loop
    vertex 105.46328548680826 62.75171463540141 -8.459899447643692e-15
    vertex 105.7175552829649 62.42034378550294 1.0000000000000024
    vertex 105.7175552829649 62.42034378550294 -8.459899447643692e-15
  endloop
endfacet
facet normal 0.7933533402912176 0.6087614290087435 0.0
  outer loop
    vertex 105.7175552829649 62.42034378550294 1.0000000000000024
    vertex 105.46328548680826 62.75171463540141 -8.459899447643692e-15
    vertex 105.46328548680826 62.75171463540141 1.0000000000000024
  endloop
endfacet
facet normal 0.6087614290087265 0.7933533402912306 0.0
  outer loop
    vertex 105.7175552829649 62.42034378550294 1.0000000000000024
    vertex 106.04892613286337 62.166073989346316 -8.459899447643692e-15
    vertex 105.7175552829649 62.42034378550294 -8.459899447643692e-15
  endloop
endfacet
facet normal 0.6087614290087265 0.7933533402912306 0.0
  outer loop
    vertex 106.04892613286337 62.166073989346316 -8.459899447643692e-15
    vertex 105.7175552829649 62.42034378550294 1.0000000000000024
    vertex 106.04892613286337 62.166073989346316 1.0000000000000024
  endloop
endfacet
facet normal 0.3826834323650867 0.9238795325112881 0.0
  outer loop
    vertex 106.04892613286337 62.166073989346316 1.0000000000000024
    vertex 106.43481566069934 62.00623331333891 -8.459899447643692e-15
    vertex 106.04892613286337 62.166073989346316 -8.459899447643692e-15
  endloop
endfacet
facet normal 0.3826834323650867 0.9238795325112881 0.0
  outer loop
    vertex 106.43481566069934 62.00623331333891 -8.459899447643692e-15
    vertex 106.04892613286337 62.166073989346316 1.0000000000000024
    vertex 106.43481566069934 62.00623331333891 1.0000000000000024
  endloop
endfacet
facet normal 0.1305261922200628 0.991444861373809 0.0
  outer loop
    vertex 106.43481566069934 62.00623331333891 1.0000000000000024
    vertex 106.84892613286337 61.951714635401416 -8.459899447643692e-15
    vertex 106.43481566069934 62.00623331333891 -8.459899447643692e-15
  endloop
endfacet
facet normal 0.1305261922200628 0.991444861373809 0.0
  outer loop
    vertex 106.84892613286337 61.951714635401416 -8.459899447643692e-15
    vertex 106.43481566069934 62.00623331333891 1.0000000000000024
    vertex 106.84892613286337 61.951714635401416 1.0000000000000024
  endloop
endfacet
facet normal -0.1305261922200628 0.991444861373809 -0.0
  outer loop
    vertex 106.84892613286337 61.951714635401416 1.0000000000000024
    vertex 107.2630366050274 62.00623331333891 -8.459899447643692e-15
    vertex 106.84892613286337 61.951714635401416 -8.459899447643692e-15
  endloop
endfacet
facet normal -0.1305261922200628 0.991444861373809 -0.0
  outer loop
    vertex 107.2630366050274 62.00623331333891 -8.459899447643692e-15
    vertex 106.84892613286337 61.951714635401416 1.0000000000000024
    vertex 107.2630366050274 62.00623331333891 1.0000000000000024
  endloop
endfacet
facet normal -0.3826834323650867 0.9238795325112881 -0.0
  outer loop
    vertex 107.2630366050274 62.00623331333891 1.0000000000000024
    vertex 107.64892613286337 62.166073989346316 -8.459899447643692e-15
    vertex 107.2630366050274 62.00623331333891 -8.459899447643692e-15
  endloop
endfacet
facet normal -0.3826834323650867 0.9238795325112881 -0.0
  outer loop
    vertex 107.64892613286337 62.166073989346316 -8.459899447643692e-15
    vertex 107.2630366050274 62.00623331333891 1.0000000000000024
    vertex 107.64892613286337 62.166073989346316 1.0000000000000024
  endloop
endfacet
facet normal -0.6087614290087265 0.7933533402912306 -0.0
  outer loop
    vertex 107.64892613286337 62.166073989346316 1.0000000000000024
    vertex 107.98029698276184 62.42034378550294 -8.459899447643692e-15
    vertex 107.64892613286337 62.166073989346316 -8.459899447643692e-15
  endloop
endfacet
facet normal -0.6087614290087265 0.7933533402912306 -0.0
  outer loop
    vertex 107.98029698276184 62.42034378550294 -8.459899447643692e-15
    vertex 107.64892613286337 62.166073989346316 1.0000000000000024
    vertex 107.98029698276184 62.42034378550294 1.0000000000000024
  endloop
endfacet
facet normal -0.7933533402912176 0.6087614290087435 -0.0
  outer loop
    vertex 108.23456677891848 62.75171463540141 1.0000000000000024
    vertex 107.98029698276184 62.42034378550294 -8.459899447643692e-15
    vertex 107.98029698276184 62.42034378550294 1.0000000000000024
  endloop
endfacet
facet normal -0.7933533402912176 0.6087614290087435 -0.0
  outer loop
    vertex 107.98029698276184 62.42034378550294 -8.459899447643692e-15
    vertex 108.23456677891848 62.75171463540141 1.0000000000000024
    vertex 108.23456677891848 62.75171463540141 -8.459899447643692e-15
  endloop
endfacet
facet normal -0.9238795325112976 0.3826834323650637 -0.0
  outer loop
    vertex 108.39440745492587 63.13760416323738 1.0000000000000024
    vertex 108.23456677891848 62.75171463540141 -8.459899447643692e-15
    vertex 108.23456677891848 62.75171463540141 1.0000000000000024
  endloop
endfacet
facet normal -0.9238795325112976 0.3826834323650637 -0.0
  outer loop
    vertex 108.23456677891848 62.75171463540141 -8.459899447643692e-15
    vertex 108.39440745492587 63.13760416323738 1.0000000000000024
    vertex 108.39440745492587 63.13760416323738 -8.459899447643692e-15
  endloop
endfacet
facet normal -0.991444861373809 0.1305261922200628 -0.0
  outer loop
    vertex 108.44892613286336 63.55171463540141 1.0000000000000024
    vertex 108.39440745492587 63.13760416323738 -8.459899447643692e-15
    vertex 108.39440745492587 63.13760416323738 1.0000000000000024
  endloop
endfacet
facet normal -0.991444861373809 0.1305261922200628 -0.0
  outer loop
    vertex 108.39440745492587 63.13760416323738 -8.459899447643692e-15
    vertex 108.44892613286336 63.55171463540141 1.0000000000000024
    vertex 108.44892613286336 63.55171463540141 -8.459899447643692e-15
  endloop
endfacet
facet normal -0.991444861373809 -0.1305261922200628 -0.0
  outer loop
    vertex 108.39440745492587 63.96582510756544 1.0000000000000024
    vertex 108.44892613286336 63.55171463540141 -8.459899447643692e-15
    vertex 108.44892613286336 63.55171463540141 1.0000000000000024
  endloop
endfacet
facet normal -0.991444861373809 -0.1305261922200628 -0.0
  outer loop
    vertex 108.44892613286336 63.55171463540141 -8.459899447643692e-15
    vertex 108.39440745492587 63.96582510756544 1.0000000000000024
    vertex 108.39440745492587 63.96582510756544 -8.459899447643692e-15
  endloop
endfacet
facet normal -0.9238795325112976 -0.3826834323650637 -0.0
  outer loop
    vertex 108.23456677891848 64.35171463540141 1.0000000000000024
    vertex 108.39440745492587 63.96582510756544 -8.459899447643692e-15
    vertex 108.39440745492587 63.96582510756544 1.0000000000000024
  endloop
endfacet
facet normal -0.9238795325112976 -0.3826834323650637 -0.0
  outer loop
    vertex 108.39440745492587 63.96582510756544 -8.459899447643692e-15
    vertex 108.23456677891848 64.35171463540141 1.0000000000000024
    vertex 108.23456677891848 64.35171463540141 -8.459899447643692e-15
  endloop
endfacet
facet normal -0.7933533402912176 -0.6087614290087435 -0.0
  outer loop
    vertex 107.98029698276184 64.68308548529988 1.0000000000000024
    vertex 108.23456677891848 64.35171463540141 -8.459899447643692e-15
    vertex 108.23456677891848 64.35171463540141 1.0000000000000024
  endloop
endfacet
facet normal -0.7933533402912176 -0.6087614290087435 -0.0
  outer loop
    vertex 108.23456677891848 64.35171463540141 -8.459899447643692e-15
    vertex 107.98029698276184 64.68308548529988 1.0000000000000024
    vertex 107.98029698276184 64.68308548529988 -8.459899447643692e-15
  endloop
endfacet
facet normal -0.6087614290087265 -0.7933533402912306 -0.0
  outer loop
    vertex 107.98029698276184 64.68308548529988 1.0000000000000024
    vertex 107.64892613286337 64.9373552814565 -8.459899447643692e-15
    vertex 107.98029698276184 64.68308548529988 -8.459899447643692e-15
  endloop
endfacet
facet normal -0.6087614290087265 -0.7933533402912306 -0.0
  outer loop
    vertex 107.64892613286337 64.9373552814565 -8.459899447643692e-15
    vertex 107.98029698276184 64.68308548529988 1.0000000000000024
    vertex 107.64892613286337 64.9373552814565 1.0000000000000024
  endloop
endfacet
facet normal -0.3826834323650867 -0.9238795325112881 -0.0
  outer loop
    vertex 107.64892613286337 64.9373552814565 1.0000000000000024
    vertex 107.2630366050274 65.09719595746391 -8.459899447643692e-15
    vertex 107.64892613286337 64.9373552814565 -8.459899447643692e-15
  endloop
endfacet
facet normal -0.3826834323650867 -0.9238795325112881 -0.0
  outer loop
    vertex 107.2630366050274 65.09719595746391 -8.459899447643692e-15
    vertex 107.64892613286337 64.9373552814565 1.0000000000000024
    vertex 107.2630366050274 65.09719595746391 1.0000000000000024
  endloop
endfacet
facet normal -0.1305261922200628 -0.991444861373809 -0.0
  outer loop
    vertex 107.2630366050274 65.09719595746391 1.0000000000000024
    vertex 106.84892613286337 65.1517146354014 -8.459899447643692e-15
    vertex 107.2630366050274 65.09719595746391 -8.459899447643692e-15
  endloop
endfacet
facet normal -0.1305261922200628 -0.991444861373809 -0.0
  outer loop
    vertex 106.84892613286337 65.1517146354014 -8.459899447643692e-15
    vertex 107.2630366050274 65.09719595746391 1.0000000000000024
    vertex 106.84892613286337 65.1517146354014 1.0000000000000024
  endloop
endfacet
facet normal 0.1305261922200628 -0.991444861373809 -0.0
  outer loop
    vertex 106.84892613286337 65.1517146354014 1.0000000000000024
    vertex 106.43481566069934 65.09719595746391 -8.459899447643692e-15
    vertex 106.84892613286337 65.1517146354014 -8.459899447643692e-15
  endloop
endfacet
facet normal 0.1305261922200628 -0.991444861373809 -0.0
  outer loop
    vertex 106.43481566069934 65.09719595746391 -8.459899447643692e-15
    vertex 106.84892613286337 65.1517146354014 1.0000000000000024
    vertex 106.43481566069934 65.09719595746391 1.0000000000000024
  endloop
endfacet
facet normal 0.3826834323650867 -0.9238795325112881 -0.0
  outer loop
    vertex 106.43481566069934 65.09719595746391 1.0000000000000024
    vertex 106.04892613286337 64.9373552814565 -8.459899447643692e-15
    vertex 106.43481566069934 65.09719595746391 -8.459899447643692e-15
  endloop
endfacet
facet normal 0.3826834323650867 -0.9238795325112881 -0.0
  outer loop
    vertex 106.04892613286337 64.9373552814565 -8.459899447643692e-15
    vertex 106.43481566069934 65.09719595746391 1.0000000000000024
    vertex 106.04892613286337 64.9373552814565 1.0000000000000024
  endloop
endfacet
facet normal 0.6087614290087265 -0.7933533402912306 -0.0
  outer loop
    vertex 106.04892613286337 64.9373552814565 1.0000000000000024
    vertex 105.7175552829649 64.68308548529988 -8.459899447643692e-15
    vertex 106.04892613286337 64.9373552814565 -8.459899447643692e-15
  endloop
endfacet
facet normal 0.6087614290087265 -0.7933533402912306 -0.0
  outer loop
    vertex 105.7175552829649 64.68308548529988 -8.459899447643692e-15
    vertex 106.04892613286337 64.9373552814565 1.0000000000000024
    vertex 105.7175552829649 64.68308548529988 1.0000000000000024
  endloop
endfacet
facet normal 0.7933533402912176 -0.6087614290087435 -0.0
  outer loop
    vertex 105.7175552829649 64.68308548529988 -8.459899447643692e-15
    vertex 105.46328548680826 64.35171463540141 1.0000000000000024
    vertex 105.46328548680826 64.35171463540141 -8.459899447643692e-15
  endloop
endfacet
facet normal 0.7933533402912176 -0.6087614290087435 -0.0
  outer loop
    vertex 105.46328548680826 64.35171463540141 1.0000000000000024
    vertex 105.7175552829649 64.68308548529988 -8.459899447643692e-15
    vertex 105.7175552829649 64.68308548529988 1.0000000000000024
  endloop
endfacet
facet normal 2.3981896382359284e-16 4.924894921219421e-33 1.0
  outer loop
    vertex 96.84892613286337 62.05060393550839 0.9999999999999989
    vertex 97.30344481080087 63.13760416323738 0.9999999999999978
    vertex 96.84892613286337 65.05282533529443 0.9999999999999989
  endloop
endfacet
facet normal 2.3981896382359284e-16 4.924894921219421e-33 1.0
  outer loop
    vertex 97.30344481080087 63.13760416323738 0.9999999999999978
    vertex 96.84892613286337 62.05060393550839 0.9999999999999989
    vertex 97.46328548680827 62.75171463540141 0.9999999999999978
  endloop
endfacet
facet normal 2.3981896382359284e-16 4.924894921219421e-33 1.0
  outer loop
    vertex 97.46328548680827 62.75171463540141 0.9999999999999978
    vertex 96.84892613286337 62.05060393550839 0.9999999999999989
    vertex 98.84892613286337 60.89590339712913 0.9999999999999978
  endloop
endfacet
facet normal 2.3981896382359284e-16 4.924894921219421e-33 1.0
  outer loop
    vertex 96.84892613286337 65.05282533529443 0.9999999999999989
    vertex 97.30344481080087 63.13760416323738 0.9999999999999978
    vertex 97.24892613286337 63.55171463540141 0.9999999999999978
  endloop
endfacet
facet normal 2.3981896382359284e-16 4.924894921219421e-33 1.0
  outer loop
    vertex 97.46328548680827 62.75171463540141 0.9999999999999978
    vertex 98.84892613286337 60.89590339712913 0.9999999999999978
    vertex 97.7175552829649 62.42034378550294 0.9999999999999978
  endloop
endfacet
facet normal 2.3981896382359284e-16 4.924894921219421e-33 1.0
  outer loop
    vertex 97.7175552829649 62.42034378550294 0.9999999999999978
    vertex 98.84892613286337 60.89590339712913 0.9999999999999978
    vertex 98.04892613286337 62.166073989346316 0.9999999999999978
  endloop
endfacet
facet normal 2.3981896382359284e-16 4.924894921219421e-33 1.0
  outer loop
    vertex 98.04892613286337 62.166073989346316 0.9999999999999978
    vertex 98.84892613286337 60.89590339712913 0.9999999999999978
    vertex 98.43481566069934 62.00623331333891 0.9999999999999978
  endloop
endfacet
facet normal 2.3981896382359284e-16 4.924894921219421e-33 1.0
  outer loop
    vertex 98.43481566069934 62.00623331333891 0.9999999999999978
    vertex 98.84892613286337 60.89590339712913 0.9999999999999978
    vertex 98.84892613286337 61.951714635401416 0.9999999999999978
  endloop
endfacet
facet normal 2.3981896382359284e-16 4.924894921219421e-33 1.0
  outer loop
    vertex 98.84892613286337 61.951714635401416 0.9999999999999978
    vertex 98.84892613286337 60.89590339712913 0.9999999999999978
    vertex 101.14892613286337 62.22380901626527 0.9999999999999978
  endloop
endfacet
facet normal 2.3981896382359284e-16 4.924894921219421e-33 1.0
  outer loop
    vertex 98.84892613286337 61.951714635401416 0.9999999999999978
    vertex 101.14892613286337 62.22380901626527 0.9999999999999978
    vertex 99.26303660502741 62.00623331333891 0.9999999999999978
  endloop
endfacet
facet normal 2.3981896382359284e-16 4.924894921219421e-33 1.0
  outer loop
    vertex 99.26303660502741 62.00623331333891 0.9999999999999978
    vertex 101.14892613286337 62.22380901626527 0.9999999999999978
    vertex 99.64892613286337 62.166073989346316 0.9999999999999978
  endloop
endfacet
facet normal 2.3981896382359284e-16 4.924894921219421e-33 1.0
  outer loop
    vertex 99.64892613286337 62.166073989346316 0.9999999999999978
    vertex 101.14892613286337 62.22380901626527 0.9999999999999978
    vertex 99.98029698276184 62.42034378550294 0.9999999999999978
  endloop
endfacet
facet normal 2.3981896382359284e-16 4.924894921219421e-33 1.0
  outer loop
    vertex 99.98029698276184 62.42034378550294 0.9999999999999978
    vertex 101.14892613286337 62.22380901626527 0.9999999999999978
    vertex 100.23456677891846 62.75171463540141 0.9999999999999978
  endloop
endfacet
facet normal 2.3981896382359284e-16 4.924894921219421e-33 1.0
  outer loop
    vertex 100.23456677891846 62.75171463540141 0.9999999999999978
    vertex 101.14892613286337 62.22380901626527 0.9999999999999978
    vertex 100.39440745492587 63.13760416323738 0.9999999999999978
  endloop
endfacet
facet normal 2.3981896382359284e-16 4.924894921219421e-33 1.0
  outer loop
    vertex 100.39440745492587 63.13760416323738 0.9999999999999978
    vertex 101.14892613286337 62.22380901626527 0.9999999999999978
    vertex 100.44892613286336 63.55171463540141 0.9999999999999978
  endloop
endfacet
facet normal 2.3981896382359284e-16 4.924894921219421e-33 1.0
  outer loop
    vertex 96.84892613286337 65.05282533529443 0.9999999999999989
    vertex 97.46328548680827 64.35171463540141 0.9999999999999978
    vertex 98.84892613286337 66.20752587367369 0.9999999999999978
  endloop
endfacet
facet normal 2.3981896382359284e-16 4.924894921219421e-33 1.0
  outer loop
    vertex 97.46328548680827 64.35171463540141 0.9999999999999978
    vertex 96.84892613286337 65.05282533529443 0.9999999999999989
    vertex 97.30344481080087 63.96582510756544 0.9999999999999978
  endloop
endfacet
facet normal 2.3981896382359284e-16 4.924894921219421e-33 1.0
  outer loop
    vertex 97.30344481080087 63.96582510756544 0.9999999999999978
    vertex 96.84892613286337 65.05282533529443 0.9999999999999989
    vertex 97.24892613286337 63.55171463540141 0.9999999999999978
  endloop
endfacet
facet normal 2.3981896382359284e-16 4.924894921219421e-33 1.0
  outer loop
    vertex 98.84892613286337 66.20752587367369 0.9999999999999978
    vertex 97.46328548680827 64.35171463540141 0.9999999999999978
    vertex 97.7175552829649 64.68308548529988 0.9999999999999978
  endloop
endfacet
facet normal 2.3981896382359284e-16 4.924894921219421e-33 1.0
  outer loop
    vertex 98.84892613286337 66.20752587367369 0.9999999999999978
    vertex 97.7175552829649 64.68308548529988 0.9999999999999978
    vertex 98.04892613286337 64.9373552814565 0.9999999999999978
  endloop
endfacet
facet normal 2.3981896382359284e-16 4.924894921219421e-33 1.0
  outer loop
    vertex 98.84892613286337 66.20752587367369 0.9999999999999978
    vertex 98.04892613286337 64.9373552814565 0.9999999999999978
    vertex 98.43481566069934 65.09719595746391 0.9999999999999978
  endloop
endfacet
facet normal 2.3981896382359284e-16 4.924894921219421e-33 1.0
  outer loop
    vertex 98.84892613286337 66.20752587367369 0.9999999999999978
    vertex 98.43481566069934 65.09719595746391 0.9999999999999978
    vertex 98.84892613286337 65.1517146354014 0.9999999999999978
  endloop
endfacet
facet normal 2.3981896382359284e-16 4.924894921219421e-33 1.0
  outer loop
    vertex 98.84892613286337 66.20752587367369 0.9999999999999978
    vertex 98.84892613286337 65.1517146354014 0.9999999999999978
    vertex 99.26303660502741 65.09719595746391 0.9999999999999978
  endloop
endfacet
facet normal 2.3981896382359284e-16 4.924894921219421e-33 1.0
  outer loop
    vertex 98.84892613286337 66.20752587367369 0.9999999999999978
    vertex 99.26303660502741 65.09719595746391 0.9999999999999978
    vertex 101.14892613286337 64.87962025453756 0.9999999999999978
  endloop
endfacet
facet normal 2.3981896382359284e-16 4.924894921219421e-33 1.0
  outer loop
    vertex 101.14892613286337 64.87962025453756 0.9999999999999978
    vertex 99.26303660502741 65.09719595746391 0.9999999999999978
    vertex 99.64892613286337 64.9373552814565 0.9999999999999978
  endloop
endfacet
facet normal 2.3981896382359284e-16 4.924894921219421e-33 1.0
  outer loop
    vertex 101.14892613286337 64.87962025453756 0.9999999999999978
    vertex 99.64892613286337 64.9373552814565 0.9999999999999978
    vertex 99.98029698276184 64.68308548529988 0.9999999999999978
  endloop
endfacet
facet normal 2.3981896382359284e-16 4.924894921219421e-33 1.0
  outer loop
    vertex 101.14892613286337 64.87962025453756 0.9999999999999978
    vertex 99.98029698276184 64.68308548529988 0.9999999999999978
    vertex 100.23456677891846 64.35171463540141 0.9999999999999978
  endloop
endfacet
facet normal 2.3981896382359284e-16 4.924894921219421e-33 1.0
  outer loop
    vertex 101.14892613286337 64.87962025453756 0.9999999999999978
    vertex 100.23456677891846 64.35171463540141 0.9999999999999978
    vertex 100.39440745492587 63.96582510756544 0.9999999999999978
  endloop
endfacet
facet normal 2.3981896382359284e-16 4.924894921219421e-33 1.0
  outer loop
    vertex 101.14892613286337 64.87962025453756 0.9999999999999978
    vertex 100.39440745492587 63.96582510756544 0.9999999999999978
    vertex 100.44892613286336 63.55171463540141 0.9999999999999978
  endloop
endfacet
facet normal 2.3981896382359284e-16 4.924894921219421e-33 1.0
  outer loop
    vertex 101.14892613286337 64.87962025453756 0.9999999999999978
    vertex 100.44892613286336 63.55171463540141 0.9999999999999978
    vertex 101.14892613286337 62.22380901626527 0.9999999999999978
  endloop
endfacet
facet normal 0.5000000000000012 0.8660254037844379 -1.1990948191179672e-16
  outer loop
    vertex 96.84892613286337 62.05060393550839 0.9999999999999989
    vertex 98.84892613286337 60.89590339712913 2.999999999999998
    vertex 98.84892613286337 60.89590339712913 0.9999999999999978
  endloop
endfacet
facet normal 0.5000000000000012 0.8660254037844379 -1.1990948191179672e-16
  outer loop
    vertex 98.84892613286337 60.89590339712913 2.999999999999998
    vertex 96.84892613286337 62.05060393550839 0.9999999999999989
    vertex 96.84892613286337 62.05060393550839 2.9999999999999987
  endloop
endfacet
facet normal -0.5000000000000009 0.8660254037844384 1.1990948191179662e-16
  outer loop
    vertex 98.84892613286337 60.89590339712913 2.999999999999998
    vertex 101.14892613286337 62.22380901626527 0.9999999999999978
    vertex 98.84892613286337 60.89590339712913 0.9999999999999978
  endloop
endfacet
facet normal -0.5000000000000009 0.8660254037844384 1.1990948191179662e-16
  outer loop
    vertex 101.14892613286337 62.22380901626527 0.9999999999999978
    vertex 98.84892613286337 60.89590339712913 2.999999999999998
    vertex 101.14892613286337 62.22380901626527 2.999999999999998
  endloop
endfacet
facet normal -1.0 -0.0 2.3981896382359284e-16
  outer loop
    vertex 101.14892613286337 64.87962025453756 2.999999999999998
    vertex 101.14892613286337 62.22380901626527 0.9999999999999978
    vertex 101.14892613286337 62.22380901626527 2.999999999999998
  endloop
endfacet
facet normal -1.0 -0.0 2.3981896382359284e-16
  outer loop
    vertex 101.14892613286337 62.22380901626527 0.9999999999999978
    vertex 101.14892613286337 64.87962025453756 2.999999999999998
    vertex 101.14892613286337 64.87962025453756 0.9999999999999978
  endloop
endfacet
facet normal -0.5000000000000009 -0.8660254037844384 1.1990948191179662e-16
  outer loop
    vertex 101.14892613286337 64.87962025453756 2.999999999999998
    vertex 98.84892613286337 66.20752587367369 0.9999999999999978
    vertex 101.14892613286337 64.87962025453756 0.9999999999999978
  endloop
endfacet
facet normal -0.5000000000000009 -0.8660254037844384 1.1990948191179662e-16
  outer loop
    vertex 98.84892613286337 66.20752587367369 0.9999999999999978
    vertex 101.14892613286337 64.87962025453756 2.999999999999998
    vertex 98.84892613286337 66.20752587367369 2.999999999999998
  endloop
endfacet
facet normal 0.5000000000000012 -0.8660254037844379 -1.1990948191179672e-16
  outer loop
    vertex 98.84892613286337 66.20752587367369 2.999999999999998
    vertex 96.84892613286337 65.05282533529443 0.9999999999999989
    vertex 98.84892613286337 66.20752587367369 0.9999999999999978
  endloop
endfacet
facet normal 0.5000000000000012 -0.8660254037844379 -1.1990948191179672e-16
  outer loop
    vertex 96.84892613286337 65.05282533529443 0.9999999999999989
    vertex 98.84892613286337 66.20752587367369 2.999999999999998
    vertex 96.84892613286337 65.05282533529443 2.9999999999999987
  endloop
endfacet
facet normal -2.3981896382359324e-16 7.576761417264877e-34 1.0
  outer loop
    vertex 104.54892613286337 62.22380901626527 1.0000000000000024
    vertex 105.46328548680826 62.75171463540141 1.0000000000000024
    vertex 104.54892613286337 64.87962025453756 1.0000000000000024
  endloop
endfacet
facet normal -2.3981896382359324e-16 7.576761417264877e-34 1.0
  outer loop
    vertex 105.46328548680826 62.75171463540141 1.0000000000000024
    vertex 104.54892613286337 62.22380901626527 1.0000000000000024
    vertex 106.84892613286337 60.89590339712913 1.0000000000000024
  endloop
endfacet
facet normal -2.3981896382359324e-16 7.576761417264877e-34 1.0
  outer loop
    vertex 104.54892613286337 64.87962025453756 1.0000000000000024
    vertex 105.46328548680826 62.75171463540141 1.0000000000000024
    vertex 105.30344481080087 63.13760416323738 1.0000000000000024
  endloop
endfacet
facet normal -2.3981896382359324e-16 7.576761417264877e-34 1.0
  outer loop
    vertex 104.54892613286337 64.87962025453756 1.0000000000000024
    vertex 105.30344481080087 63.13760416323738 1.0000000000000024
    vertex 105.24892613286337 63.55171463540141 1.0000000000000024
  endloop
endfacet
facet normal -2.3981896382359324e-16 7.576761417264877e-34 1.0
  outer loop
    vertex 105.46328548680826 62.75171463540141 1.0000000000000024
    vertex 106.84892613286337 60.89590339712913 1.0000000000000024
    vertex 105.7175552829649 62.42034378550294 1.0000000000000024
  endloop
endfacet
facet normal -2.3981896382359324e-16 7.576761417264877e-34 1.0
  outer loop
    vertex 105.7175552829649 62.42034378550294 1.0000000000000024
    vertex 106.84892613286337 60.89590339712913 1.0000000000000024
    vertex 106.04892613286337 62.166073989346316 1.0000000000000024
  endloop
endfacet
facet normal -2.3981896382359324e-16 7.576761417264877e-34 1.0
  outer loop
    vertex 106.04892613286337 62.166073989346316 1.0000000000000024
    vertex 106.84892613286337 60.89590339712913 1.0000000000000024
    vertex 106.43481566069934 62.00623331333891 1.0000000000000024
  endloop
endfacet
facet normal -2.3981896382359324e-16 7.576761417264877e-34 1.0
  outer loop
    vertex 106.43481566069934 62.00623331333891 1.0000000000000024
    vertex 106.84892613286337 60.89590339712913 1.0000000000000024
    vertex 106.84892613286337 61.951714635401416 1.0000000000000024
  endloop
endfacet
facet normal -2.3981896382359324e-16 7.576761417264877e-34 1.0
  outer loop
    vertex 106.84892613286337 61.951714635401416 1.0000000000000024
    vertex 106.84892613286337 60.89590339712913 1.0000000000000024
    vertex 108.84892613286337 62.050603935508384 1.0000000000000036
  endloop
endfacet
facet normal -2.3981896382359324e-16 7.576761417264877e-34 1.0
  outer loop
    vertex 106.84892613286337 61.951714635401416 1.0000000000000024
    vertex 108.84892613286337 62.050603935508384 1.0000000000000036
    vertex 107.2630366050274 62.00623331333891 1.0000000000000024
  endloop
endfacet
facet normal -2.3981896382359324e-16 7.576761417264877e-34 1.0
  outer loop
    vertex 107.2630366050274 62.00623331333891 1.0000000000000024
    vertex 108.84892613286337 62.050603935508384 1.0000000000000036
    vertex 107.64892613286337 62.166073989346316 1.0000000000000024
  endloop
endfacet
facet normal -2.3981896382359324e-16 7.576761417264877e-34 1.0
  outer loop
    vertex 107.64892613286337 62.166073989346316 1.0000000000000024
    vertex 108.84892613286337 62.050603935508384 1.0000000000000036
    vertex 107.98029698276184 62.42034378550294 1.0000000000000024
  endloop
endfacet
facet normal -2.3981896382359324e-16 7.576761417264877e-34 1.0
  outer loop
    vertex 107.98029698276184 62.42034378550294 1.0000000000000024
    vertex 108.84892613286337 62.050603935508384 1.0000000000000036
    vertex 108.23456677891848 62.75171463540141 1.0000000000000024
  endloop
endfacet
facet normal -2.3981896382359324e-16 7.576761417264877e-34 1.0
  outer loop
    vertex 108.23456677891848 62.75171463540141 1.0000000000000024
    vertex 108.84892613286337 62.050603935508384 1.0000000000000036
    vertex 108.39440745492587 63.13760416323738 1.0000000000000024
  endloop
endfacet
facet normal -2.3981896382359324e-16 7.576761417264877e-34 1.0
  outer loop
    vertex 108.39440745492587 63.13760416323738 1.0000000000000024
    vertex 108.84892613286337 62.050603935508384 1.0000000000000036
    vertex 108.44892613286336 63.55171463540141 1.0000000000000024
  endloop
endfacet
facet normal -2.3981896382359324e-16 7.576761417264877e-34 1.0
  outer loop
    vertex 104.54892613286337 64.87962025453756 1.0000000000000024
    vertex 105.46328548680826 64.35171463540141 1.0000000000000024
    vertex 106.84892613286337 66.20752587367369 1.0000000000000024
  endloop
endfacet
facet normal -2.3981896382359324e-16 7.576761417264877e-34 1.0
  outer loop
    vertex 105.46328548680826 64.35171463540141 1.0000000000000024
    vertex 104.54892613286337 64.87962025453756 1.0000000000000024
    vertex 105.30344481080087 63.96582510756544 1.0000000000000024
  endloop
endfacet
facet normal -2.3981896382359324e-16 7.576761417264877e-34 1.0
  outer loop
    vertex 105.30344481080087 63.96582510756544 1.0000000000000024
    vertex 104.54892613286337 64.87962025453756 1.0000000000000024
    vertex 105.24892613286337 63.55171463540141 1.0000000000000024
  endloop
endfacet
facet normal -2.3981896382359324e-16 7.576761417264877e-34 1.0
  outer loop
    vertex 106.84892613286337 66.20752587367369 1.0000000000000024
    vertex 105.46328548680826 64.35171463540141 1.0000000000000024
    vertex 105.7175552829649 64.68308548529988 1.0000000000000024
  endloop
endfacet
facet normal -2.3981896382359324e-16 7.576761417264877e-34 1.0
  outer loop
    vertex 106.84892613286337 66.20752587367369 1.0000000000000024
    vertex 105.7175552829649 64.68308548529988 1.0000000000000024
    vertex 106.04892613286337 64.9373552814565 1.0000000000000024
  endloop
endfacet
facet normal -2.3981896382359324e-16 7.576761417264877e-34 1.0
  outer loop
    vertex 106.84892613286337 66.20752587367369 1.0000000000000024
    vertex 106.04892613286337 64.9373552814565 1.0000000000000024
    vertex 106.43481566069934 65.09719595746391 1.0000000000000024
  endloop
endfacet
facet normal -2.3981896382359324e-16 7.576761417264877e-34 1.0
  outer loop
    vertex 106.84892613286337 66.20752587367369 1.0000000000000024
    vertex 106.43481566069934 65.09719595746391 1.0000000000000024
    vertex 106.84892613286337 65.1517146354014 1.0000000000000024
  endloop
endfacet
facet normal -2.3981896382359324e-16 7.576761417264877e-34 1.0
  outer loop
    vertex 106.84892613286337 66.20752587367369 1.0000000000000024
    vertex 106.84892613286337 65.1517146354014 1.0000000000000024
    vertex 107.2630366050274 65.09719595746391 1.0000000000000024
  endloop
endfacet
facet normal -2.3981896382359324e-16 7.576761417264877e-34 1.0
  outer loop
    vertex 106.84892613286337 66.20752587367369 1.0000000000000024
    vertex 107.2630366050274 65.09719595746391 1.0000000000000024
    vertex 108.84892613286337 65.05282533529444 1.0000000000000036
  endloop
endfacet
facet normal -2.3981896382359324e-16 7.576761417264877e-34 1.0
  outer loop
    vertex 108.84892613286337 65.05282533529444 1.0000000000000036
    vertex 107.2630366050274 65.09719595746391 1.0000000000000024
    vertex 107.64892613286337 64.9373552814565 1.0000000000000024
  endloop
endfacet
facet normal -2.3981896382359324e-16 7.576761417264877e-34 1.0
  outer loop
    vertex 108.84892613286337 65.05282533529444 1.0000000000000036
    vertex 107.64892613286337 64.9373552814565 1.0000000000000024
    vertex 107.98029698276184 64.68308548529988 1.0000000000000024
  endloop
endfacet
facet normal -2.3981896382359324e-16 7.576761417264877e-34 1.0
  outer loop
    vertex 108.84892613286337 65.05282533529444 1.0000000000000036
    vertex 107.98029698276184 64.68308548529988 1.0000000000000024
    vertex 108.23456677891848 64.35171463540141 1.0000000000000024
  endloop
endfacet
facet normal -2.3981896382359324e-16 7.576761417264877e-34 1.0
  outer loop
    vertex 108.84892613286337 65.05282533529444 1.0000000000000036
    vertex 108.23456677891848 64.35171463540141 1.0000000000000024
    vertex 108.39440745492587 63.96582510756544 1.0000000000000024
  endloop
endfacet
facet normal -2.3981896382359324e-16 7.576761417264877e-34 1.0
  outer loop
    vertex 108.84892613286337 65.05282533529444 1.0000000000000036
    vertex 108.39440745492587 63.96582510756544 1.0000000000000024
    vertex 108.44892613286336 63.55171463540141 1.0000000000000024
  endloop
endfacet
facet normal -2.3981896382359324e-16 7.576761417264877e-34 1.0
  outer loop
    vertex 108.84892613286337 65.05282533529444 1.0000000000000036
    vertex 108.44892613286336 63.55171463540141 1.0000000000000024
    vertex 108.84892613286337 62.050603935508384 1.0000000000000036
  endloop
endfacet
facet normal -0.4999999999999997 -0.8660254037844388 -1.1990948191179654e-16
  outer loop
    vertex 108.84892613286337 65.05282533529444 1.0000000000000036
    vertex 106.84892613286337 66.20752587367369 2.999999999999998
    vertex 106.84892613286337 66.20752587367369 1.0000000000000024
  endloop
endfacet
facet normal -0.4999999999999997 -0.8660254037844388 -1.1990948191179654e-16
  outer loop
    vertex 106.84892613286337 66.20752587367369 2.999999999999998
    vertex 108.84892613286337 65.05282533529444 1.0000000000000036
    vertex 108.84892613286337 65.05282533529444 2.9999999999999987
  endloop
endfacet
facet normal 0.5000000000000009 -0.8660254037844384 1.1990948191179684e-16
  outer loop
    vertex 106.84892613286337 66.20752587367369 2.999999999999998
    vertex 104.54892613286337 64.87962025453756 1.0000000000000024
    vertex 106.84892613286337 66.20752587367369 1.0000000000000024
  endloop
endfacet
facet normal 0.5000000000000009 -0.8660254037844384 1.1990948191179684e-16
  outer loop
    vertex 104.54892613286337 64.87962025453756 1.0000000000000024
    vertex 106.84892613286337 66.20752587367369 2.999999999999998
    vertex 104.54892613286337 64.87962025453756 2.999999999999998
  endloop
endfacet
facet normal 1.0 0.0 2.3981896382359324e-16
  outer loop
    vertex 104.54892613286337 64.87962025453756 1.0000000000000024
    vertex 104.54892613286337 62.22380901626527 2.999999999999998
    vertex 104.54892613286337 62.22380901626527 1.0000000000000024
  endloop
endfacet
facet normal 1.0 0.0 2.3981896382359324e-16
  outer loop
    vertex 104.54892613286337 62.22380901626527 2.999999999999998
    vertex 104.54892613286337 64.87962025453756 1.0000000000000024
    vertex 104.54892613286337 64.87962025453756 2.999999999999998
  endloop
endfacet
facet normal 0.5000000000000009 0.8660254037844384 1.1990948191179684e-16
  outer loop
    vertex 104.54892613286337 62.22380901626527 2.999999999999998
    vertex 106.84892613286337 60.89590339712913 1.0000000000000024
    vertex 104.54892613286337 62.22380901626527 1.0000000000000024
  endloop
endfacet
facet normal 0.5000000000000009 0.8660254037844384 1.1990948191179684e-16
  outer loop
    vertex 106.84892613286337 60.89590339712913 1.0000000000000024
    vertex 104.54892613286337 62.22380901626527 2.999999999999998
    vertex 106.84892613286337 60.89590339712913 2.999999999999998
  endloop
endfacet
facet normal -0.4999999999999997 0.8660254037844388 -1.1990948191179654e-16
  outer loop
    vertex 106.84892613286337 60.89590339712913 2.999999999999998
    vertex 108.84892613286337 62.050603935508384 1.0000000000000036
    vertex 106.84892613286337 60.89590339712913 1.0000000000000024
  endloop
endfacet
facet normal -0.4999999999999997 0.8660254037844388 -1.1990948191179654e-16
  outer loop
    vertex 108.84892613286337 62.050603935508384 1.0000000000000036
    vertex 106.84892613286337 60.89590339712913 2.999999999999998
    vertex 108.84892613286337 62.050603935508384 2.9999999999999987
  endloop
endfacet
endsolid Belt Nut
